<mxfile host="app.diagrams.net" modified="2022-06-13T09:35:07.068Z" agent="5.0 (Windows NT 10.0; Win64; x64) AppleWebKit/537.36 (KHTML, like Gecko) Chrome/102.0.5005.115 Safari/537.36" etag="If-L1b8ij12ZrW4nAGQj" version="19.0.0" type="github">
  <diagram name="Page-1" id="e7e014a7-5840-1c2e-5031-d8a46d1fe8dd">
    <mxGraphModel dx="877" dy="493" grid="1" gridSize="10" guides="1" tooltips="1" connect="1" arrows="1" fold="1" page="1" pageScale="1" pageWidth="1169" pageHeight="826" background="none" math="0" shadow="0">
      <root>
        <mxCell id="0" />
        <mxCell id="1" parent="0" />
        <mxCell id="2nPF8oqDAp5KCJnaBlrl-41" value="&lt;font style=&quot;font-size: 24px;&quot;&gt;楼宇&lt;/font&gt;" style="html=1;" vertex="1" parent="1">
          <mxGeometry x="190" y="130" width="110" height="50" as="geometry" />
        </mxCell>
        <mxCell id="2nPF8oqDAp5KCJnaBlrl-45" value="&lt;span style=&quot;font-size: 24px;&quot;&gt;业主&lt;/span&gt;" style="html=1;" vertex="1" parent="1">
          <mxGeometry x="180" y="260" width="110" height="50" as="geometry" />
        </mxCell>
        <mxCell id="2nPF8oqDAp5KCJnaBlrl-46" value="&lt;font style=&quot;font-size: 24px;&quot;&gt;管理员&lt;/font&gt;" style="html=1;" vertex="1" parent="1">
          <mxGeometry x="380" y="250" width="110" height="50" as="geometry" />
        </mxCell>
        <mxCell id="2nPF8oqDAp5KCJnaBlrl-47" value="&lt;span style=&quot;font-size: 24px;&quot;&gt;房屋&lt;/span&gt;" style="html=1;" vertex="1" parent="1">
          <mxGeometry x="600" y="40" width="110" height="50" as="geometry" />
        </mxCell>
        <mxCell id="2nPF8oqDAp5KCJnaBlrl-48" value="&lt;font style=&quot;font-size: 18px;&quot;&gt;物业管理情况&lt;/font&gt;" style="html=1;" vertex="1" parent="1">
          <mxGeometry x="340" y="140" width="140" height="50" as="geometry" />
        </mxCell>
        <mxCell id="2nPF8oqDAp5KCJnaBlrl-49" value="&lt;font style=&quot;font-size: 24px;&quot;&gt;管理员&lt;/font&gt;" style="html=1;" vertex="1" parent="1">
          <mxGeometry x="520" y="160" width="110" height="50" as="geometry" />
        </mxCell>
        <mxCell id="2nPF8oqDAp5KCJnaBlrl-51" value="&lt;span style=&quot;color: rgb(77, 77, 77); font-family: -apple-system, &amp;quot;SF UI Text&amp;quot;, Arial, &amp;quot;PingFang SC&amp;quot;, &amp;quot;Hiragino Sans GB&amp;quot;, &amp;quot;Microsoft YaHei&amp;quot;, &amp;quot;WenQuanYi Micro Hei&amp;quot;, sans-serif, SimHei, SimSun; font-size: 16px; text-align: start; background-color: rgb(255, 255, 255);&quot;&gt;物业费信息&lt;/span&gt;" style="html=1;" vertex="1" parent="1">
          <mxGeometry x="380" y="50" width="140" height="50" as="geometry" />
        </mxCell>
      </root>
    </mxGraphModel>
  </diagram>
</mxfile>
